# xmcd CD database file
#
# Track frame offsets:
#	150
#	7672
#	24780
#	42682
#	62455
#	84282
#	103005
#	119492
#	135770
#	156207
#	173660
#	192495
#	208067
#	222942
#	237317
#
# Disc length: 3344 seconds
#
# Revision: 2
# Processed by: cddbd v1.5.2PL0 Copyright (c) Steve Scherf et al.
# Submitted via: CDex 1.70beta3
#
DISCID=bd0d0e0f
DTITLE=倖田来未 - Kingdom
DYEAR=2008
DGENRE=Blues
TTITLE0=Introduction For Kingdom
TTITLE1=LAST ANGEL feat. 東方神起
TTITLE2=甘い罠
TTITLE3=秘密
TTITLE4=愛のうた
TTITLE5=anytime
TTITLE6=Under
TTITLE7=BUT
TTITLE8=恋の魔法
TTITLE9=愛証
TTITLE10=あなたがしてくれたこと
TTITLE11=Wonderland
TTITLE12=FREAKY
TTITLE13=MORE
TTITLE14=Black Cherry
EXTD=YEAR: 2008
EXTT0=
EXTT1=
EXTT2=
EXTT3=
EXTT4=
EXTT5=
EXTT6=
EXTT7=
EXTT8=
EXTT9=
EXTT10=
EXTT11=
EXTT12=
EXTT13=
EXTT14=
PLAYORDER=
